<svg xmlns="http://www.w3.org/2000/svg" viewBox="0 0 684.41 682.54"><g id="Layer_2" data-name="Layer 2"><g id="Layer_1-2" data-name="Layer 1"><path d="M10.46,384s3.38.13,4.53-4.46,1.34-12,1.34-14.11-.16-9-.42-9.83,0-24.85.55-29c0,0,4.85-48.25,9.7-55.91S53.22,121.86,205.39,56.49,505.65,22.54,629,229.34c0,0,11.49,8.69,19.15-3.06s-24.68-90.81-55.66-115.66C568.34,91.28,489.82-6.32,340.2.32s-213.44,72-261.44,121S-23.12,290.75,10.46,384Z"/><path d="M391.65,118.41s-9.89.19-12.77,3.89c0,0-3.19-48.62-31.44-52.1s-36.86,21.53-28.17,55.57c0,0-37.11-20.6-59.07,3.4S276.37,183,311.44,181.6c0,0,25.14-1.87,31.29-26.89,0,0,2.83-2.51,3.26,2.42,0,0-10,27.53,8.89,39.79s40.6-4.21,53.62-25.92S416.8,123.77,391.65,118.41Zm-96.74,31.88c-.09,0-8.07.35-8.52.16s-7.91-2.58-8.55-2.81-10.91-5.68-11-5.71-3.48-2.49,0-3.93c.56-.23,8.17,2.27,11.23,5.59a3.51,3.51,0,0,0,2.43.7c1.85.07,6.73,2.75,7.44,2.59s5.58.16,6.12.63A5.82,5.82,0,0,1,294.91,150.29Zm23.65,7.88a67.74,67.74,0,0,1-8.2-3c-.38-.32-1.31-1.85-2.71-1.63s-9.38-3.25-9.38-3.25c-.07-.58,1.27-1.25,1.66-1.66s7.65-.45,9,.77,14.49,6,14.49,6C324.37,158.72,319.17,158.17,318.56,158.17Zm8.94,2.45a3.29,3.29,0,0,1-2.19-2s2.1-2.49,3.93-.19C329.24,158.43,329.29,161.22,327.5,160.62Zm16.23-52s-.26-3.36-.62-3.66a6.49,6.49,0,0,1-1.54-2.32c-.16-.72,0-4.91-1-6.27s-1.4-14-1.23-17.2c0,0,.09-2.72,1.36-2.42s1.66,2.42,1.7,3.15-.21,4.81.64,5.83.73,2.59,1.28,3.15-.09,12.46.55,14a5.89,5.89,0,0,0,1.79,2.34c.64.72.43,4.59-.21,4.68S344.2,110,343.73,108.62Zm8.47,30.3a2.27,2.27,0,0,1-2-1.28c-.3-1-.32-8.13-2.13-10.38,0,0,.13-8-.64-9.28s-.81-2.17-1.44-2.42c0,0-.51-3.83,1.11-4.13s1.06,3.11,1.31,3.53a28.79,28.79,0,0,0,1.75,2.9,11.71,11.71,0,0,1,.42,2.46c0,.51,1.49,3.45,1.66,3.24S352.5,138.83,352.2,138.92Zm25.12,24.89c-.22,1.87-1.2,4.26-5.59,8.3s-6.55,7.83-7.23,8.38-2.47,3.62-3.53,3.83-1.41-2.59-1.58-3.32,7.56-8.69,8.26-9a17.89,17.89,0,0,0,3.62-3s3.4-4.55,3.4-5.19S377.54,161.94,377.32,163.81Zm2.46-3.05c-.35.67-2.37,1-2.46-.7,0,0,1.37-1.6,1.72-1.12S380.13,160.09,379.78,160.76Zm14.87-19.09s-3.07,1.12-3.29,1.76-7.37,9.86-8.81,10.79c0,0,0,3.67-2.22,3.7a3.27,3.27,0,0,1-.55-3.47s9.06-14.68,12.08-15.49c0,0,3.68-2.42,4-2.79s5.17-6,6.43-5.51S398.67,137,394.65,141.67Z"/><path d="M66,370.37a13.19,13.19,0,0,0,4.42-6l18.3-29.94s16.39-22.23,16.73-22.36S127,282.58,127,282.58s9.11-10,18.43-6.13c0,0,8.34,2.21-3.54,15.11s-21.59,29.38-21.59,29.38-23.94,34.53-24.45,37.6S256,283.47,262.58,277.09s28.22,2.3,5.11,12.89-65.32,37.83-95.64,49.92-80.36,35.91-88.53,38.3c0,0-3.15,1.66-5.7,7.53,0,0,53.87,3.87,124.34,39.44,0,0,7.57,3.58,8,7.07s.94,10.55-4.47,9-52.08-28.47-134.12-43.79c-.68-1-33.88,65.7-40.68,64,0,0-3.11,1.66-6.81-18.51.76-.26,6.12-26,20.55-30.51,0,0,3.45-13.66,8.68-17.62,0,0-19.66-2.81-16.85-9.19,0,0,4.3-5.62,7.87-5.7S63.86,373.43,66,370.37Z"/><path d="M595.2,360.51s25.6-25.29,27.9-30.06,25.27-25,21.31-36.13-5.48-14.29-27.31-2c0,0-29.37,32.68-46.73,58.47S554.16,380,554.16,380s-33.45,35.36-34.09,27.19,22.34-33.83,13.15-34.59c0,0-6.72-.6-8,1.57s-12.66,19.15-13.64,19.79-26.25,26.68-22.12,8.89,34.68-30.85,37.83-31.78c0-.19,11.49-1.83,5.06-7s-35,2.42-51.53,25.91c0,0-24.85,18.47-25.36,17.62s17.19-23.83,17.27-24.09,12.34-9.19,11.66-16-18.21-4.93-19.91,1.7c-.81.47-17,23.83-30.68,30.86S423.61,407,411.61,411.3c0,0-8.34-2.89-7.66-7.4s36.08-14.73,43.87-36.68c0,0,2.81-18.64-19.28-14.56,0,0,53.87-47.87,32.62-56.93,0,0-9.89-6.39-31.21,24.89,0,0-20.3,26.55-22,28.47s-21.58,41.36-32.3,31.4c0,0,.13-18.29-15.28-13.06s-5.14,21.94-2.78,21.87-19.34,32-29.94,18.19c0,0-7.91-6.49,11.49-25.89l15.49-13.41s-12.09-18.59-33.19,15.11c0,0-45.28,41.36-41.87,23.15,0,0,1.17-12.49,5.38-18,0,0,71.42-53.3,78.32-79.47,0,0,13.91-33.44-16.73-21.44,0,0-35.74,33.95-43.4,46.47s-7.15,5.87-18,30.89c0,0-8.42,19.15-16.21,15.32,0,0,.32-5.62-1.21-7.53s-5.24-10.92-17-3.39.7,20.17.7,20.17-19.72,33.9-30.7,16.73c0,0-8.25-10.08,27.45-38,0,0-7.53-13.23-23.49,1.45s-25.53,47.11-.89,50.94,37.91-19.79,40.08-27.32c0,0,2.43,2.56,6.64-1.4,0,0,1.32,1.23.15,3.74s-9.09,25.15,12.53,25.83c0,0,14.89-2,31.92-20.26,0,0-3.43,21.83,23.57,20,.38.13,16.38,1.47,30.47-24.95,0,0,11-7.58,2.34,3.1,0,0-15.9,19.3-8.43,20.64a9.65,9.65,0,0,0,6.51-.7s12.13-15.32,16.47-18.38,13.34-12.71,16.66-13.79c.19-.32,24.51-18.9,25.41-20.11,0,0,10.46-4.47,4.21,1.92s-11.24,11.55-20.94,16.27c0,0-17.68,10.57-18.6,11.36a6.17,6.17,0,0,0,.79,9.05s7.88,13.19,12.94,14.72S419,422.49,441,408.39c0,0,.83,17,17.81,11,0,0,14.9-10.37,16-10.72s5.93,20.68,27.44,6.7c0,0,5.59-7.47,6.83-.51,0,0,4.11,10.61,15.43,5.93s23-17,23.19-17.53-5.32,26.13,20.21,16.51c0,0,8-3.19,11.19-6.38,0,0,9.45-6.38,12.71-11s15.82-15,14.48-22.22S573.37,409.6,559,411.32c0,0-8.08-1.21,3.19-22C562.2,389.3,592.33,365.49,595.2,360.51Zm-21.4,5.32c4.85-10.85,60.51-74,60.76-68.93s-54.63,65.74-58.46,68.93S573.8,365.83,573.8,365.83Zm-278.72,0c4.85-10.85,60.51-74,60.76-68.93s-54.64,65.74-58.47,68.93S295.08,365.83,295.08,365.83ZM423.71,346c-2.39,2-1.44,0-1.44,0,3-6.7,37.78-45.73,37.94-42.58S426.1,344,423.71,346Z"/><path d="M480.24,350.3s.83,7.66,2.17,8.49,5.56,4.47,13.6-4.24-1.53-19.76-11-10.76C485,343.79,480.5,347.3,480.24,350.3Z"/><path d="M291.69,453.77s9.45-13.7,73.41-9.83,144.63,15.62,241.83,7.45c0,0,11.74-2.22,12.76,3.66s-6.3,10.29-11.23,10.63-69.28,6.64-80.51,4.43S305,458.7,294.76,456.92C294.76,456.92,289.71,456.45,291.69,453.77Z"/><path d="M653.48,385.34s-6.38-54.12,0-66.89c0,0,2.68-18.51,12.89-8S688.8,360.15,682.84,378s-27.91,70-27.23,75.91c0,0-10.9,35.74-12.94,39.15,0,0-14.13,35.06-26.55,18,0,0,11.91-20.08,12.08-22.47S656.29,401.43,653.48,385.34Z"/><path d="M568.2,565.34S595,540.07,604,538.28s14,7.15-5.62,28.09c0,0-18.13,26-32.68,18.12S568.2,565.34,568.2,565.34Z"/><path d="M74.41,549.51s3.32-10,9.45-4.21,19.66,21.7,19.92,25.28,2.93,11.23-9.71,6.13S76.07,551.94,74.41,549.51Z"/><path d="M117.56,594.58a4.18,4.18,0,0,1,3.92-4.55c4.25-.43,17.28,7,20.08,9.19s89,56.08,187.75,62.55,200.08-62.09,203.79-66.94c0,0,16.72-1.91,2.55,16.34s-64.27,64.75-206.2,71.37c0,0-114.87-10.22-140.4-36.77C189.05,645.77,116.54,607.73,117.56,594.58Z"/><path d="M164.55,541.6h8.95a1.4,1.4,0,0,1,1.39,1.38v3.11a1.41,1.41,0,0,1-1.39,1.39h-16a1.4,1.4,0,0,1-1.38-1.39V521.24a1.4,1.4,0,0,1,1.38-1.39h4.27a1.41,1.41,0,0,1,1.38,1.39v19A1.4,1.4,0,0,0,164.55,541.6Z"/><path d="M208.94,533.63c0,8-6.39,14.16-14.95,14.16s-14.92-6.08-14.92-14.16,6.4-14,14.92-14S208.94,525.62,208.94,533.63Zm-22.69,0a8,8,0,0,0,7.82,8.24c4.26,0,7.65-3.59,7.65-8.24s-3.39-8.17-7.65-8.17A8,8,0,0,0,186.25,533.67Z"/><path d="M232.9,546.88l-5.92-8.8a1.33,1.33,0,0,0-2.17-.15l-2.13,2.36a2.55,2.55,0,0,0-.36.91v4.89a1.4,1.4,0,0,1-1.38,1.39h-4.26a1.4,1.4,0,0,1-1.38-1.39V521.24a1.4,1.4,0,0,1,1.38-1.39h4.26a1.4,1.4,0,0,1,1.38,1.39v6.94a1.36,1.36,0,0,0,2.41.91l7.78-8.76a1.84,1.84,0,0,1,1-.48H238a1.35,1.35,0,0,1,1,2.29l-7.5,8.37a1.49,1.49,0,0,0-.12,1.7l8.88,13.1a1.35,1.35,0,0,1-1.15,2.17H234A1.71,1.71,0,0,1,232.9,546.88Z"/><path d="M264.83,542.39H254.65a1.69,1.69,0,0,0-1.31.86l-1.3,3.36a1.69,1.69,0,0,1-1.3.87h-4.18a1.33,1.33,0,0,1-1.27-1.94L256,520.68a1.59,1.59,0,0,1,1.26-.83h5.41a1.69,1.69,0,0,1,1.26.83l10.5,24.86a1.37,1.37,0,0,1-1.31,1.94h-4.46a1.7,1.7,0,0,1-1.3-.87l-1.26-3.36A1.69,1.69,0,0,0,264.83,542.39ZM263,535.16l-2-5a1.35,1.35,0,0,0-2.57,0l-2,5a1.33,1.33,0,0,0,1.26,1.9h3.95A1.36,1.36,0,0,0,263,535.16Z"/><path d="M288.86,541.6h9A1.4,1.4,0,0,1,299.2,543v3.11a1.4,1.4,0,0,1-1.38,1.39h-16a1.4,1.4,0,0,1-1.38-1.39V521.24a1.4,1.4,0,0,1,1.38-1.39h4.26a1.4,1.4,0,0,1,1.38,1.39v19A1.4,1.4,0,0,0,288.86,541.6Z"/><path d="M310.85,547.48h-4.27a1.4,1.4,0,0,1-1.38-1.39V521.24a1.4,1.4,0,0,1,1.38-1.39h4.27a1.41,1.41,0,0,1,1.38,1.39v24.85A1.41,1.41,0,0,1,310.85,547.48Z"/><path d="M340.8,522a1.35,1.35,0,0,1,.59,1.77l-1.5,3a1.51,1.51,0,0,1-2,.63,19.57,19.57,0,0,0-7.5-2.17c-1.82,0-3,.67-3,2,0,4.78,14.6,2.06,14.6,12,0,5.52-4.89,8.44-11.05,8.44a21,21,0,0,1-11.88-3.83,1.15,1.15,0,0,1-.23-1.57l1.42-2.84a1.52,1.52,0,0,1,2.17-.52A16.62,16.62,0,0,0,331,542c2.21,0,3.59-.83,3.59-2.41,0-4.89-14.6-2-14.6-11.76,0-5.09,4.38-8.32,11-8.32A21.66,21.66,0,0,1,340.8,522Z"/><path d="M365.86,542.39H355.68a1.69,1.69,0,0,0-1.31.86l-1.3,3.36a1.69,1.69,0,0,1-1.3.87h-4.18a1.33,1.33,0,0,1-1.26-1.94l10.73-24.86a1.59,1.59,0,0,1,1.26-.83h5.41a1.69,1.69,0,0,1,1.26.83l10.5,24.86a1.37,1.37,0,0,1-1.31,1.94h-4.46a1.7,1.7,0,0,1-1.3-.87l-1.26-3.36A1.69,1.69,0,0,0,365.86,542.39ZM364,535.16l-2-5a1.35,1.35,0,0,0-2.57,0l-2,5a1.33,1.33,0,0,0,1.26,1.9h3.95A1.36,1.36,0,0,0,364,535.16Z"/><path d="M401.89,522a1.35,1.35,0,0,1,.59,1.77l-1.5,3a1.51,1.51,0,0,1-2,.63,19.57,19.57,0,0,0-7.5-2.17c-1.82,0-3,.67-3,2,0,4.78,14.6,2.06,14.6,12,0,5.52-4.89,8.44-11.05,8.44a20.94,20.94,0,0,1-11.87-3.83,1.14,1.14,0,0,1-.24-1.57l1.42-2.84a1.52,1.52,0,0,1,2.17-.52,16.65,16.65,0,0,0,8.6,3.08c2.21,0,3.59-.83,3.59-2.41,0-4.89-14.6-2-14.6-11.76,0-5.09,4.38-8.32,11-8.32A21.63,21.63,0,0,1,401.89,522Z"/><path d="M415.19,547.48h-4.26a1.4,1.4,0,0,1-1.38-1.39V521.24a1.4,1.4,0,0,1,1.38-1.39h4.26a1.4,1.4,0,0,1,1.38,1.39v24.85A1.4,1.4,0,0,1,415.19,547.48Z"/><path d="M454.14,546.88l-5.92-8.8a1.33,1.33,0,0,0-2.17-.15l-2.13,2.36a2.55,2.55,0,0,0-.36.91v4.89a1.4,1.4,0,0,1-1.38,1.39h-4.26a1.4,1.4,0,0,1-1.38-1.39V521.24a1.4,1.4,0,0,1,1.38-1.39h4.26a1.4,1.4,0,0,1,1.38,1.39v6.94a1.36,1.36,0,0,0,2.41.91l7.78-8.76a1.84,1.84,0,0,1,1-.48h4.42a1.35,1.35,0,0,1,1,2.29l-7.5,8.37a1.49,1.49,0,0,0-.12,1.7l8.88,13.1a1.35,1.35,0,0,1-1.15,2.17h-5.05A1.71,1.71,0,0,1,454.14,546.88Z"/><path d="M495.93,533.63c0,8-6.39,14.16-14.95,14.16s-14.92-6.08-14.92-14.16,6.39-14,14.92-14S495.93,525.62,495.93,533.63Zm-22.69,0a8,8,0,0,0,7.82,8.24c4.26,0,7.65-3.59,7.65-8.24s-3.39-8.17-7.65-8.17A7.94,7.94,0,0,0,473.24,533.67Z"/><path d="M503.67,519.85h10.66c7.06,0,11.12,3.48,11.12,9.63,0,6.47-4.06,10.22-11.12,10.22H510.7a1.4,1.4,0,0,0-1.39,1.38v5a1.4,1.4,0,0,1-1.38,1.39h-4.26a1.4,1.4,0,0,1-1.38-1.39V521.24A1.4,1.4,0,0,1,503.67,519.85Zm5.64,6.91v6a1.4,1.4,0,0,0,1.39,1.38H514c3.08,0,4.85-1.54,4.85-4.46s-1.77-4.34-4.85-4.34H510.7A1.4,1.4,0,0,0,509.31,526.76Z"/><path d="M537.41,547.48h-4.26a1.4,1.4,0,0,1-1.38-1.39V521.24a1.4,1.4,0,0,1,1.38-1.39h4.26a1.4,1.4,0,0,1,1.38,1.39v24.85A1.4,1.4,0,0,1,537.41,547.48Z"/></g></g></svg>