<?xml version="1.0" encoding="UTF-8" standalone="no"?>
<svg
   xmlns:dc="http://purl.org/dc/elements/1.1/"
   xmlns:cc="http://creativecommons.org/ns#"
   xmlns:rdf="http://www.w3.org/1999/02/22-rdf-syntax-ns#"
   xmlns:svg="http://www.w3.org/2000/svg"
   xmlns="http://www.w3.org/2000/svg"
   viewBox="0 0 440.54999 457.1825"
   height="457.1825"
   width="440.54999"
   xml:space="preserve"
   version="1.1"
   id="svg2"><metadata
     id="metadata8"><rdf:RDF><cc:Work
         rdf:about=""><dc:format>image/svg+xml</dc:format><dc:type
           rdf:resource="http://purl.org/dc/dcmitype/StillImage" /><dc:title></dc:title></cc:Work></rdf:RDF></metadata><defs
     id="defs6"><clipPath
       id="clipPath152"
       clipPathUnits="userSpaceOnUse"><path
         id="path154"
         d="m 0.059998,365.746 352.380002,0 0,-365.686 -352.380002,0 0,365.686 z" /></clipPath></defs><g
     transform="matrix(1.25,0,0,-1.25,0,457.1825)"
     id="g10"><g
       transform="translate(345.516,63.523)"
       id="g12"><path
         id="path14"
         style="fill:#231f20;fill-opacity:1;fill-rule:nonzero;stroke:none"
         d="M 0,0 C 0.509,0.19 0.766,0.591 0.766,1.205 0.766,1.68 0.545,2.014 0.109,2.22 -0.175,2.365 -0.516,2.429 -0.9,2.429 -1.328,2.429 -1.573,2.314 -1.65,2.073 -1.73,1.834 -1.766,1.086 -1.766,-0.17 -0.9,-0.17 -0.315,-0.117 0,0 Z M 1.503,-0.238 C 1.131,-0.419 0.705,-0.538 0.222,-0.595 l 0,-0.071 0.093,-0.024 c 0.899,-0.003 1.474,-0.755 1.724,-2.24 0.111,-0.387 0.237,-0.576 0.378,-0.576 0.117,0 0.205,0.058 0.251,0.18 0.049,0.12 0.09,0.326 0.123,0.617 l 0.542,0 C 3.301,-3.215 3.157,-3.67 2.897,-4.066 2.635,-4.463 2.256,-4.661 1.759,-4.661 c -0.441,0 -0.774,0.156 -1.008,0.451 -0.132,0.176 -0.247,0.439 -0.337,0.791 -0.052,0.26 -0.086,0.47 -0.103,0.606 -0.02,0.145 -0.035,0.279 -0.046,0.418 -0.112,0.659 -0.384,1.085 -0.82,1.289 -0.252,0.105 -0.655,0.158 -1.211,0.134 l 0,-1.374 c 0,-0.545 0.05,-0.904 0.156,-1.077 0.101,-0.176 0.391,-0.259 0.864,-0.259 l 0,-0.758 -3.672,0 0,0.758 c 0.486,0 0.774,0.122 0.862,0.352 0.088,0.239 0.133,0.945 0.133,2.116 l 0,1.3 c 0,0.533 -0.004,0.968 -0.009,1.299 -0.003,0.387 -0.072,0.655 -0.189,0.814 -0.118,0.151 -0.388,0.23 -0.797,0.23 l 0,0.726 c 0.544,0 1.396,0 2.541,-0.009 1.144,0 1.799,0 1.953,-0.013 C 0.622,3.084 1.075,2.988 1.443,2.834 2.174,2.501 2.534,1.982 2.534,1.257 2.534,0.603 2.194,0.101 1.503,-0.238 Z m -6.414,-4.809 c 1.138,-1.164 2.509,-1.747 4.113,-1.747 1.574,0 2.928,0.565 4.066,1.707 1.174,1.179 1.765,2.647 1.765,4.404 0,1.687 -0.571,3.127 -1.7,4.319 -1.145,1.196 -2.518,1.796 -4.131,1.796 -1.629,0 -3.015,-0.613 -4.163,-1.837 -1.123,-1.194 -1.689,-2.619 -1.689,-4.278 0,-1.724 0.581,-3.177 1.739,-4.364 z m 8.795,9.548 c 1.393,-1.39 2.088,-3.119 2.088,-5.184 0,-2.015 -0.673,-3.722 -2.024,-5.115 -1.315,-1.369 -2.891,-2.046 -4.734,-2.046 -1.907,0 -3.522,0.701 -4.84,2.106 -1.31,1.393 -1.966,3.076 -1.966,5.055 0,2.01 0.678,3.713 2.034,5.104 1.329,1.37 2.922,2.059 4.772,2.059 1.794,0 3.344,-0.657 4.67,-1.979" /></g><path
       id="path16"
       style="fill:#231f20;fill-opacity:1;fill-rule:nonzero;stroke:none"
       d="m 210.148,133.657 21.846,0 0,21.849 -21.846,0 0,-21.849 z" /><path
       id="path18"
       style="fill:#231f20;fill-opacity:1;fill-rule:nonzero;stroke:none"
       d="m 298.535,133.659 21.846,0 0,21.847 -21.846,0 0,-21.847 z" /><g
       transform="translate(69.514,192.623)"
       id="g20"><path
         id="path22"
         style="fill:#231f20;fill-opacity:1;fill-rule:nonzero;stroke:none"
         d="m 0,0 -69.437,0 0,21.847 61.61,0 L 0,0" /></g><g
       transform="translate(99.713,192.606)"
       id="g24"><path
         id="path26"
         style="fill:#231f20;fill-opacity:1;fill-rule:nonzero;stroke:none"
         d="m 0,0 69.44,0 0,21.847 -61.612,0 L 0,0" /></g><g
       transform="translate(51.367,292.725)"
       id="g28"><path
         id="path30"
         style="fill:#00573c;fill-opacity:1;fill-rule:nonzero;stroke:none"
         d="m 0,0 -0.002,-66.726 -51.245,0 0,139.747 61.57,0 22.777,-64.793 23.109,64.793 61.674,0 0,-139.747 -51.399,0 L 66.468,0 46.126,-66.726 l -25.668,0 L 0,0" /></g><path
       id="path32"
       style="fill:#231f20;fill-opacity:1;fill-rule:nonzero;stroke:none"
       d="m 210.148,225.969 21.846,0 0,139.772 -21.846,0 0,-139.772 z" /><path
       id="path34"
       style="fill:#231f20;fill-opacity:1;fill-rule:nonzero;stroke:none"
       d="m 180.682,225.969 21.849,0 0,139.772 -21.849,0 0,-139.772 z" /><g
       transform="translate(242.374,365.699)"
       id="g36"><path
         id="path38"
         style="fill:#231f20;fill-opacity:1;fill-rule:nonzero;stroke:none"
         d="m 0,0 19.084,-54.136 0,-85.571 -8.849,0 L -2.763,-97.634 -2.763,0 0,0" /></g><path
       id="path40"
       style="fill:#231f20;fill-opacity:1;fill-rule:nonzero;stroke:none"
       d="m 298.495,225.969 21.848,0 0,139.772 -21.848,0 0,-139.772 z" /><path
       id="path42"
       style="fill:#231f20;fill-opacity:1;fill-rule:nonzero;stroke:none"
       d="m 327.96,225.969 21.847,0 0,139.772 -21.847,0 0,-139.772 z" /><g
       transform="translate(288.219,365.741)"
       id="g44"><path
         id="path46"
         style="fill:#231f20;fill-opacity:1;fill-rule:nonzero;stroke:none"
         d="m 0,0 -19.083,-54.178 0,-85.571 8.849,0 L 2.764,-97.886 2.764,0 0,0" /></g><g
       transform="translate(79.757,163.142)"
       id="g48"><path
         id="path50"
         style="fill:#231f20;fill-opacity:1;fill-rule:nonzero;stroke:none"
         d="m 0,0 -79.679,0 0,21.847 72.147,0 L 0,0" /></g><g
       transform="translate(89.471,163.103)"
       id="g52"><path
         id="path54"
         style="fill:#231f20;fill-opacity:1;fill-rule:nonzero;stroke:none"
         d="m 0,0 79.682,0 0,21.846 -72.151,0 L 0,0" /></g><g
       transform="translate(290.993,214.39)"
       id="g56"><path
         id="path58"
         style="fill:#231f20;fill-opacity:1;fill-rule:nonzero;stroke:none"
         d="m 0,0 0,-21.847 -10.5,0 L -2.781,0 0,0" /></g><g
       transform="translate(242.344,214.4)"
       id="g60"><path
         id="path62"
         style="fill:#231f20;fill-opacity:1;fill-rule:nonzero;stroke:none"
         d="m 0,0 7.664,-21.849 -10.32,0 L -2.656,0 0,0" /></g><path
       id="path64"
       style="fill:#231f20;fill-opacity:1;fill-rule:nonzero;stroke:none"
       d="m 210.175,192.551 21.846,0 0,21.849 -21.846,0 0,-21.849 z" /><path
       id="path66"
       style="fill:#231f20;fill-opacity:1;fill-rule:nonzero;stroke:none"
       d="m 327.998,192.558 21.846,0 0,21.847 -21.846,0 0,-21.847 z" /><path
       id="path68"
       style="fill:#231f20;fill-opacity:1;fill-rule:nonzero;stroke:none"
       d="m 298.535,192.556 21.846,0 0,21.849 -21.846,0 0,-21.849 z" /><path
       id="path70"
       style="fill:#231f20;fill-opacity:1;fill-rule:nonzero;stroke:none"
       d="m 180.682,192.579 21.849,0 0,21.846 -21.849,0 0,-21.846 z" /><g
       transform="translate(290.993,185.044)"
       id="g72"><path
         id="path74"
         style="fill:#231f20;fill-opacity:1;fill-rule:nonzero;stroke:none"
         d="m 0,0 0,-21.849 -21.058,0 L -13.231,0 0,0" /></g><g
       transform="translate(252.554,184.975)"
       id="g76"><path
         id="path78"
         style="fill:#231f20;fill-opacity:1;fill-rule:nonzero;stroke:none"
         d="m 0,0 7.664,-21.85 -20.607,0 0,21.85 L 0,0" /></g><path
       id="path80"
       style="fill:#231f20;fill-opacity:1;fill-rule:nonzero;stroke:none"
       d="m 210.148,163.125 21.846,0 0,21.85 -21.846,0 0,-21.85 z" /><path
       id="path82"
       style="fill:#231f20;fill-opacity:1;fill-rule:nonzero;stroke:none"
       d="m 327.998,163.125 21.846,0 0,21.85 -21.846,0 0,-21.85 z" /><path
       id="path84"
       style="fill:#231f20;fill-opacity:1;fill-rule:nonzero;stroke:none"
       d="m 298.535,163.125 21.846,0 0,21.85 -21.846,0 0,-21.85 z" /><path
       id="path86"
       style="fill:#231f20;fill-opacity:1;fill-rule:nonzero;stroke:none"
       d="m 180.682,163.125 21.849,0 0,21.85 -21.849,0 0,-21.85 z" /><g
       transform="translate(169.19,133.675)"
       id="g88"><path
         id="path90"
         style="fill:#231f20;fill-opacity:1;fill-rule:nonzero;stroke:none"
         d="m 0,0 -51.342,0 0,7.582 -2.466,-7.582 -61.604,0 -2.321,7.582 0,-7.582 -51.379,0 0,21.846 L 0,21.846 0,0" /></g><path
       id="path92"
       style="fill:#231f20;fill-opacity:1;fill-rule:nonzero;stroke:none"
       d="m 269.074,133.659 21.929,0 0,21.847 -21.929,0 0,-21.847 z" /><path
       id="path94"
       style="fill:#231f20;fill-opacity:1;fill-rule:nonzero;stroke:none"
       d="m 239.611,133.657 21.847,0 0,21.849 -21.847,0 0,-21.849 z" /><path
       id="path96"
       style="fill:#231f20;fill-opacity:1;fill-rule:nonzero;stroke:none"
       d="m 327.998,133.659 21.846,0 0,21.847 -21.846,0 0,-21.847 z" /><path
       id="path98"
       style="fill:#231f20;fill-opacity:1;fill-rule:nonzero;stroke:none"
       d="m 180.682,133.657 21.849,0 0,21.849 -21.849,0 0,-21.849 z" /><path
       id="path100"
       style="fill:#231f20;fill-opacity:1;fill-rule:nonzero;stroke:none"
       d="m 0.077637,104.251 51.267,0 0,21.849 -51.267,0 0,-21.849 z" /><g
       transform="translate(291,126.088)"
       id="g102"><path
         id="path104"
         style="fill:#231f20;fill-opacity:1;fill-rule:nonzero;stroke:none"
         d="m 0,0 0,-9.291 -3.929,-12.558 -17.997,0 0,21.849 L 0,0" /></g><g
       transform="translate(261.458,126.085)"
       id="g106"><path
         id="path108"
         style="fill:#231f20;fill-opacity:1;fill-rule:nonzero;stroke:none"
         d="m 0,0 0,-21.849 -18.123,0 -3.724,11.915 0,9.934 L 0,0" /></g><path
       id="path110"
       style="fill:#231f20;fill-opacity:1;fill-rule:nonzero;stroke:none"
       d="m 210.148,104.236 21.846,0 0,21.849 -21.846,0 0,-21.849 z" /><path
       id="path112"
       style="fill:#231f20;fill-opacity:1;fill-rule:nonzero;stroke:none"
       d="m 327.998,104.239 21.846,0 0,21.849 -21.846,0 0,-21.849 z" /><path
       id="path114"
       style="fill:#231f20;fill-opacity:1;fill-rule:nonzero;stroke:none"
       d="m 298.535,104.236 21.846,0 0,21.849 -21.846,0 0,-21.849 z" /><path
       id="path116"
       style="fill:#231f20;fill-opacity:1;fill-rule:nonzero;stroke:none"
       d="m 180.682,104.236 21.849,0 0,21.849 -21.849,0 0,-21.849 z" /><path
       id="path118"
       style="fill:#231f20;fill-opacity:1;fill-rule:nonzero;stroke:none"
       d="m 117.835,104.236 51.385,0 0,21.849 -51.385,0 0,-21.849 z" /><g
       transform="translate(113.175,126.088)"
       id="g120"><path
         id="path122"
         style="fill:#231f20;fill-opacity:1;fill-rule:nonzero;stroke:none"
         d="m 0,0 -6.661,-21.849 -43.768,0 L -57.092,0 0,0" /></g><path
       id="path124"
       style="fill:#231f20;fill-opacity:1;fill-rule:nonzero;stroke:none"
       d="m 0.077637,74.738 51.267,0 0,21.849 -51.267,0 0,-21.849 z" /><g
       transform="translate(284.765,96.607)"
       id="g126"><path
         id="path128"
         style="fill:#231f20;fill-opacity:1;fill-rule:nonzero;stroke:none"
         d="m 0,0 -6.7,-21.849 -8.991,0 0,21.849 L 0,0" /></g><g
       transform="translate(261.458,96.647)"
       id="g130"><path
         id="path132"
         style="fill:#231f20;fill-opacity:1;fill-rule:nonzero;stroke:none"
         d="m 0,0 0,-21.849 -9.064,0 L -15.818,0 0,0" /></g><path
       id="path134"
       style="fill:#231f20;fill-opacity:1;fill-rule:nonzero;stroke:none"
       d="m 210.148,74.796 21.846,0 0,21.848 -21.846,0 0,-21.848 z" /><path
       id="path136"
       style="fill:#231f20;fill-opacity:1;fill-rule:nonzero;stroke:none"
       d="m 327.998,74.758 21.846,0 0,21.849 -21.846,0 0,-21.849 z" /><path
       id="path138"
       style="fill:#231f20;fill-opacity:1;fill-rule:nonzero;stroke:none"
       d="m 298.535,74.758 21.846,0 0,21.849 -21.846,0 0,-21.849 z" /><path
       id="path140"
       style="fill:#231f20;fill-opacity:1;fill-rule:nonzero;stroke:none"
       d="m 180.682,74.758 21.849,0 0,21.849 -21.849,0 0,-21.849 z" /><path
       id="path142"
       style="fill:#231f20;fill-opacity:1;fill-rule:nonzero;stroke:none"
       d="m 117.896,74.758 51.324,0 0,21.849 -51.324,0 0,-21.849 z" /><g
       transform="translate(104.194,96.607)"
       id="g144"><path
         id="path146"
         style="fill:#231f20;fill-opacity:1;fill-rule:nonzero;stroke:none"
         d="M 0,0 -6.661,-21.849 -32.352,-21.744 -39.012,0 0,0" /></g><g
       id="g148"><g
         clip-path="url(#clipPath152)"
         id="g150"><g
           transform="translate(64.333,0)"
           id="g156"><path
             id="path158"
             style="fill:#231f20;fill-opacity:1;fill-rule:nonzero;stroke:none"
             d="m 0,0 -12.573,0 -0.022,45.498 -20.753,-45.485 -3.354,0 -20.352,43.597 0,-43.59497 -7.279,0 0,63.00597 12.102,-0.017 20.106,-43.255 19.237,43.26 12.801,0 L 0,0" /></g><g
           transform="translate(86.709,26.415)"
           id="g160"><path
             id="path162"
             style="fill:#231f20;fill-opacity:1;fill-rule:nonzero;stroke:none"
             d="M 0,0 15.974,0 7.953,19.018 0,0 Z m 40.235,-26.393 -13.361,-0.022 -8.3,19.496 -21.352,0 c -1.183,-3.6 -6.82,-19.493 -6.82,-19.493 l -9.038,-0.003 26.92,64.285 4.02,0 27.931,-64.263" /></g><g
           transform="translate(188.228,0.01001)"
           id="g164"><path
             id="path166"
             style="fill:#231f20;fill-opacity:1;fill-rule:nonzero;stroke:none"
             d="m 0,0 -0.01,3.294 37.489,53.051 -34.926,-0.022 0.744,6.676 50.739,0 0,-3.224 L 16.92,6.626 54.269,6.613 53.317,-0.002014 0,0" /></g><g
           transform="translate(249.11,0.007996)"
           id="g168"><path
             id="path170"
             style="fill:#231f20;fill-opacity:1;fill-rule:nonzero;stroke:none"
             d="m 0,0 -0.016,63.013 43.468,-0.012 0.011,-6.921 -30.995,0.038 0,-19.802 12.144,0 13.861,0.013 0,-6.897 -13.861,-0.029 -12.11,0 0,-22.453 1.555,-0.034 12.109,0 L 45.815,6.903 43.978,0 0,0" /></g><g
           transform="translate(129.479,0.01001)"
           id="g172"><path
             id="path174"
             style="fill:#231f20;fill-opacity:1;fill-rule:nonzero;stroke:none"
             d="M 0,0 -0.001,3.209 37.571,56.345 2.646,56.323 3.402,62.999 54.116,62.984 54.129,59.775 17.014,6.626 54.361,6.613 53.412,-0.002014 0,0" /></g><g
           transform="translate(312.544,34.241)"
           id="g176"><path
             id="path178"
             style="fill:#231f20;fill-opacity:1;fill-rule:nonzero;stroke:none"
             d="M 0,0 C 11.301,0.479 17.972,2.814 17.972,11.777 17.972,18.488 13.04,22.15 4.831,22.15 -1.113,22.15 0,22.16 0,22.16 L 0,0 Z m -12.47,28.776 17.569,0 C 21.05,28.776 30.65,23.109 31.005,11.88 31.366,0.501 21.406,-3.909 15.985,-4.945 L 39.896,-34.231 24.224,-34.236 2.744,-6.485 0.023,-6.548 0.007,-34.241 l -12.477,0 0,63.017" /></g></g></g></g></svg>